<mxfile host="app.diagrams.net" agent="Mozilla/5.0 (Macintosh; Intel Mac OS X 10_15_7) AppleWebKit/537.36 (KHTML, like Gecko) Chrome/132.0.0.0 Safari/537.36" version="26.0.11" pages="3">
  <diagram id="fOvdGied5Z8_xfhFyvuB" name="i2i关联推荐">
    <mxGraphModel dx="1242" dy="773" grid="1" gridSize="10" guides="1" tooltips="1" connect="1" arrows="1" fold="1" page="1" pageScale="1" pageWidth="850" pageHeight="1100" math="0" shadow="0">
      <root>
        <mxCell id="0" />
        <mxCell id="1" parent="0" />
        <mxCell id="OI-hIz22b7afXG1VX2Zp-1" value="" style="ellipse;whiteSpace=wrap;html=1;aspect=fixed;strokeColor=#E6E6E6;" vertex="1" parent="1">
          <mxGeometry x="650" y="394" width="162" height="162" as="geometry" />
        </mxCell>
        <mxCell id="OI-hIz22b7afXG1VX2Zp-2" style="edgeStyle=orthogonalEdgeStyle;rounded=0;orthogonalLoop=1;jettySize=auto;html=1;exitX=0.5;exitY=0;exitDx=0;exitDy=0;entryX=0.5;entryY=0;entryDx=0;entryDy=0;entryPerimeter=0;endArrow=none;startFill=0;" edge="1" parent="1" source="OI-hIz22b7afXG1VX2Zp-3" target="OI-hIz22b7afXG1VX2Zp-25">
          <mxGeometry relative="1" as="geometry">
            <Array as="points">
              <mxPoint x="320" y="396" />
              <mxPoint x="535" y="396" />
            </Array>
          </mxGeometry>
        </mxCell>
        <mxCell id="OI-hIz22b7afXG1VX2Zp-3" value="" style="rounded=0;whiteSpace=wrap;html=1;" vertex="1" parent="1">
          <mxGeometry x="250" y="446" width="140" height="58" as="geometry" />
        </mxCell>
        <mxCell id="OI-hIz22b7afXG1VX2Zp-4" style="edgeStyle=orthogonalEdgeStyle;curved=1;rounded=0;orthogonalLoop=1;jettySize=auto;html=1;exitX=0.5;exitY=0;exitDx=0;exitDy=0;entryX=0.5;entryY=0;entryDx=0;entryDy=0;dashed=1;dashPattern=1 2;" edge="1" parent="1" source="OI-hIz22b7afXG1VX2Zp-5" target="OI-hIz22b7afXG1VX2Zp-12">
          <mxGeometry relative="1" as="geometry" />
        </mxCell>
        <mxCell id="OI-hIz22b7afXG1VX2Zp-5" value="" style="rounded=0;whiteSpace=wrap;html=1;fillColor=#d5e8d4;strokeColor=#82b366;align=left;" vertex="1" parent="1">
          <mxGeometry x="115" y="433.75" width="90" height="22.5" as="geometry" />
        </mxCell>
        <mxCell id="OI-hIz22b7afXG1VX2Zp-6" value="user" style="shape=umlActor;verticalLabelPosition=bottom;verticalAlign=top;html=1;outlineConnect=0;" vertex="1" parent="1">
          <mxGeometry x="50" y="442" width="30" height="50" as="geometry" />
        </mxCell>
        <mxCell id="OI-hIz22b7afXG1VX2Zp-7" value="" style="ellipse;whiteSpace=wrap;html=1;aspect=fixed;fillColor=#ffe6cc;strokeColor=#d79b00;" vertex="1" parent="1">
          <mxGeometry x="151" y="436" width="18" height="18" as="geometry" />
        </mxCell>
        <mxCell id="OI-hIz22b7afXG1VX2Zp-8" value="trigger" style="text;html=1;align=center;verticalAlign=middle;resizable=0;points=[];autosize=1;strokeColor=none;fillColor=none;" vertex="1" parent="1">
          <mxGeometry x="290" y="570" width="60" height="30" as="geometry" />
        </mxCell>
        <mxCell id="OI-hIz22b7afXG1VX2Zp-9" value="主动行为" style="text;html=1;align=center;verticalAlign=middle;resizable=0;points=[];autosize=1;strokeColor=none;fillColor=none;" vertex="1" parent="1">
          <mxGeometry x="125" y="570" width="70" height="30" as="geometry" />
        </mxCell>
        <mxCell id="OI-hIz22b7afXG1VX2Zp-10" value="" style="ellipse;whiteSpace=wrap;html=1;aspect=fixed;fillColor=#d5e8d4;strokeColor=#82b366;" vertex="1" parent="1">
          <mxGeometry x="354" y="468.12" width="18" height="18" as="geometry" />
        </mxCell>
        <mxCell id="OI-hIz22b7afXG1VX2Zp-11" value="" style="ellipse;whiteSpace=wrap;html=1;aspect=fixed;fillColor=#dae8fc;strokeColor=#6c8ebf;" vertex="1" parent="1">
          <mxGeometry x="324" y="468.12" width="18" height="18" as="geometry" />
        </mxCell>
        <mxCell id="OI-hIz22b7afXG1VX2Zp-12" value="" style="ellipse;whiteSpace=wrap;html=1;aspect=fixed;fillColor=#fff2cc;strokeColor=#d6b656;" vertex="1" parent="1">
          <mxGeometry x="295" y="468.12" width="18" height="18" as="geometry" />
        </mxCell>
        <mxCell id="OI-hIz22b7afXG1VX2Zp-13" value="" style="ellipse;whiteSpace=wrap;html=1;aspect=fixed;fillColor=#f8cecc;strokeColor=#b85450;" vertex="1" parent="1">
          <mxGeometry x="264.25" y="467.12" width="20" height="20" as="geometry" />
        </mxCell>
        <mxCell id="OI-hIz22b7afXG1VX2Zp-14" value="&lt;font style=&quot;font-size: 14px;&quot;&gt;u2i&lt;/font&gt;" style="text;html=1;align=center;verticalAlign=middle;resizable=0;points=[];autosize=1;strokeColor=none;fillColor=none;fontStyle=1" vertex="1" parent="1">
          <mxGeometry x="305" y="359" width="40" height="30" as="geometry" />
        </mxCell>
        <mxCell id="OI-hIz22b7afXG1VX2Zp-15" value="" style="ellipse;whiteSpace=wrap;html=1;aspect=fixed;" vertex="1" parent="1">
          <mxGeometry x="125" y="436" width="18" height="18" as="geometry" />
        </mxCell>
        <mxCell id="OI-hIz22b7afXG1VX2Zp-16" style="edgeStyle=orthogonalEdgeStyle;curved=1;rounded=0;orthogonalLoop=1;jettySize=auto;html=1;exitX=1;exitY=0.5;exitDx=0;exitDy=0;entryX=0;entryY=0.5;entryDx=0;entryDy=0;dashed=1;dashPattern=1 2;" edge="1" parent="1" source="OI-hIz22b7afXG1VX2Zp-17" target="OI-hIz22b7afXG1VX2Zp-13">
          <mxGeometry relative="1" as="geometry" />
        </mxCell>
        <mxCell id="OI-hIz22b7afXG1VX2Zp-17" value="" style="ellipse;whiteSpace=wrap;html=1;aspect=fixed;fillColor=#f8cecc;strokeColor=#b85450;" vertex="1" parent="1">
          <mxGeometry x="177" y="436" width="18" height="18" as="geometry" />
        </mxCell>
        <mxCell id="OI-hIz22b7afXG1VX2Zp-18" value="" style="rounded=0;whiteSpace=wrap;html=1;fillColor=#f5f5f5;strokeColor=#666666;align=left;fontColor=#333333;" vertex="1" parent="1">
          <mxGeometry x="115" y="483.75" width="90" height="22.5" as="geometry" />
        </mxCell>
        <mxCell id="OI-hIz22b7afXG1VX2Zp-19" style="edgeStyle=orthogonalEdgeStyle;curved=1;rounded=0;orthogonalLoop=1;jettySize=auto;html=1;exitX=0.5;exitY=1;exitDx=0;exitDy=0;entryX=0.5;entryY=1;entryDx=0;entryDy=0;dashed=1;dashPattern=1 2;endArrow=classicThin;endFill=1;startFill=0;" edge="1" parent="1" source="OI-hIz22b7afXG1VX2Zp-20" target="OI-hIz22b7afXG1VX2Zp-11">
          <mxGeometry relative="1" as="geometry" />
        </mxCell>
        <mxCell id="OI-hIz22b7afXG1VX2Zp-20" value="" style="ellipse;whiteSpace=wrap;html=1;aspect=fixed;fillColor=#dae8fc;strokeColor=#6c8ebf;" vertex="1" parent="1">
          <mxGeometry x="151" y="486" width="18" height="18" as="geometry" />
        </mxCell>
        <mxCell id="OI-hIz22b7afXG1VX2Zp-21" style="edgeStyle=orthogonalEdgeStyle;curved=1;rounded=0;orthogonalLoop=1;jettySize=auto;html=1;exitX=0.5;exitY=1;exitDx=0;exitDy=0;entryX=0.5;entryY=1;entryDx=0;entryDy=0;dashed=1;dashPattern=1 2;" edge="1" parent="1" source="OI-hIz22b7afXG1VX2Zp-22" target="OI-hIz22b7afXG1VX2Zp-10">
          <mxGeometry relative="1" as="geometry">
            <Array as="points">
              <mxPoint x="134" y="540" />
              <mxPoint x="363" y="540" />
            </Array>
          </mxGeometry>
        </mxCell>
        <mxCell id="OI-hIz22b7afXG1VX2Zp-22" value="" style="ellipse;whiteSpace=wrap;html=1;aspect=fixed;fillColor=#d5e8d4;strokeColor=#82b366;" vertex="1" parent="1">
          <mxGeometry x="125" y="486" width="18" height="18" as="geometry" />
        </mxCell>
        <mxCell id="OI-hIz22b7afXG1VX2Zp-23" style="edgeStyle=orthogonalEdgeStyle;curved=1;rounded=0;orthogonalLoop=1;jettySize=auto;html=1;exitX=1;exitY=0.5;exitDx=0;exitDy=0;entryX=0;entryY=0.5;entryDx=0;entryDy=0;dashed=1;dashPattern=1 2;" edge="1" parent="1" source="OI-hIz22b7afXG1VX2Zp-24" target="OI-hIz22b7afXG1VX2Zp-13">
          <mxGeometry relative="1" as="geometry" />
        </mxCell>
        <mxCell id="OI-hIz22b7afXG1VX2Zp-24" value="" style="ellipse;whiteSpace=wrap;html=1;aspect=fixed;fillColor=#f8cecc;strokeColor=#b85450;" vertex="1" parent="1">
          <mxGeometry x="177" y="486" width="18" height="18" as="geometry" />
        </mxCell>
        <mxCell id="OI-hIz22b7afXG1VX2Zp-25" value="" style="shape=cylinder3;whiteSpace=wrap;html=1;boundedLbl=1;backgroundOutline=1;size=15;" vertex="1" parent="1">
          <mxGeometry x="470" y="416" width="130" height="110" as="geometry" />
        </mxCell>
        <mxCell id="OI-hIz22b7afXG1VX2Zp-26" style="edgeStyle=orthogonalEdgeStyle;curved=1;rounded=0;orthogonalLoop=1;jettySize=auto;html=1;exitX=1;exitY=0.5;exitDx=0;exitDy=0;entryX=0;entryY=0.5;entryDx=0;entryDy=0;" edge="1" parent="1" source="OI-hIz22b7afXG1VX2Zp-27" target="OI-hIz22b7afXG1VX2Zp-28">
          <mxGeometry relative="1" as="geometry" />
        </mxCell>
        <mxCell id="OI-hIz22b7afXG1VX2Zp-27" value="" style="ellipse;whiteSpace=wrap;html=1;aspect=fixed;fillColor=#d5e8d4;strokeColor=#82b366;" vertex="1" parent="1">
          <mxGeometry x="491" y="449.75" width="18" height="18" as="geometry" />
        </mxCell>
        <mxCell id="OI-hIz22b7afXG1VX2Zp-28" value="" style="ellipse;whiteSpace=wrap;html=1;aspect=fixed;fillColor=#60a917;strokeColor=#2D7600;fontColor=#ffffff;" vertex="1" parent="1">
          <mxGeometry x="561" y="449.75" width="18" height="18" as="geometry" />
        </mxCell>
        <mxCell id="OI-hIz22b7afXG1VX2Zp-29" style="edgeStyle=orthogonalEdgeStyle;curved=1;rounded=0;orthogonalLoop=1;jettySize=auto;html=1;exitX=1;exitY=0.5;exitDx=0;exitDy=0;entryX=0;entryY=0.5;entryDx=0;entryDy=0;" edge="1" parent="1" source="OI-hIz22b7afXG1VX2Zp-30" target="OI-hIz22b7afXG1VX2Zp-31">
          <mxGeometry relative="1" as="geometry" />
        </mxCell>
        <mxCell id="OI-hIz22b7afXG1VX2Zp-30" value="" style="ellipse;whiteSpace=wrap;html=1;aspect=fixed;fillColor=#ffe6cc;strokeColor=#d79b00;" vertex="1" parent="1">
          <mxGeometry x="491" y="477.25" width="18" height="18" as="geometry" />
        </mxCell>
        <mxCell id="OI-hIz22b7afXG1VX2Zp-31" value="" style="ellipse;whiteSpace=wrap;html=1;aspect=fixed;fillColor=#f0a30a;strokeColor=#BD7000;fontColor=#000000;" vertex="1" parent="1">
          <mxGeometry x="561" y="477.25" width="18" height="18" as="geometry" />
        </mxCell>
        <mxCell id="OI-hIz22b7afXG1VX2Zp-32" style="edgeStyle=orthogonalEdgeStyle;curved=1;rounded=0;orthogonalLoop=1;jettySize=auto;html=1;exitX=1;exitY=0.5;exitDx=0;exitDy=0;entryX=0;entryY=0.5;entryDx=0;entryDy=0;" edge="1" parent="1" source="OI-hIz22b7afXG1VX2Zp-33" target="OI-hIz22b7afXG1VX2Zp-34">
          <mxGeometry relative="1" as="geometry" />
        </mxCell>
        <mxCell id="OI-hIz22b7afXG1VX2Zp-33" value="" style="ellipse;whiteSpace=wrap;html=1;aspect=fixed;fillColor=#f8cecc;strokeColor=#b85450;" vertex="1" parent="1">
          <mxGeometry x="491" y="499.75" width="18" height="18" as="geometry" />
        </mxCell>
        <mxCell id="OI-hIz22b7afXG1VX2Zp-34" value="" style="ellipse;whiteSpace=wrap;html=1;aspect=fixed;fillColor=#d5e8d4;strokeColor=#82b366;" vertex="1" parent="1">
          <mxGeometry x="561" y="499.75" width="18" height="18" as="geometry" />
        </mxCell>
        <mxCell id="OI-hIz22b7afXG1VX2Zp-35" value="" style="shape=umlActor;verticalLabelPosition=bottom;verticalAlign=top;html=1;outlineConnect=0;" vertex="1" parent="1">
          <mxGeometry x="670" y="436" width="10" height="20" as="geometry" />
        </mxCell>
        <mxCell id="OI-hIz22b7afXG1VX2Zp-36" value="" style="ellipse;whiteSpace=wrap;html=1;aspect=fixed;fillColor=#d5e8d4;strokeColor=#82b366;" vertex="1" parent="1">
          <mxGeometry x="760" y="422" width="18" height="18" as="geometry" />
        </mxCell>
        <mxCell id="OI-hIz22b7afXG1VX2Zp-37" value="" style="ellipse;whiteSpace=wrap;html=1;aspect=fixed;fillColor=#ffe6cc;strokeColor=#d79b00;" vertex="1" parent="1">
          <mxGeometry x="760" y="448" width="18" height="18" as="geometry" />
        </mxCell>
        <mxCell id="OI-hIz22b7afXG1VX2Zp-38" value="" style="ellipse;whiteSpace=wrap;html=1;aspect=fixed;fillColor=#60a917;strokeColor=#2D7600;fontColor=#ffffff;" vertex="1" parent="1">
          <mxGeometry x="760" y="474" width="18" height="18" as="geometry" />
        </mxCell>
        <mxCell id="OI-hIz22b7afXG1VX2Zp-39" value="" style="ellipse;whiteSpace=wrap;html=1;aspect=fixed;fillColor=#f0a30a;strokeColor=#BD7000;fontColor=#000000;" vertex="1" parent="1">
          <mxGeometry x="760" y="500" width="18" height="18" as="geometry" />
        </mxCell>
        <mxCell id="OI-hIz22b7afXG1VX2Zp-40" value="" style="shape=umlActor;verticalLabelPosition=bottom;verticalAlign=top;html=1;outlineConnect=0;" vertex="1" parent="1">
          <mxGeometry x="670" y="497.75" width="10" height="20" as="geometry" />
        </mxCell>
        <mxCell id="OI-hIz22b7afXG1VX2Zp-41" value="" style="endArrow=none;html=1;rounded=0;curved=1;entryX=0;entryY=0.5;entryDx=0;entryDy=0;exitX=1;exitY=0.3333333333333333;exitDx=0;exitDy=0;exitPerimeter=0;strokeColor=#E6E6E6;" edge="1" parent="1" source="OI-hIz22b7afXG1VX2Zp-35" target="OI-hIz22b7afXG1VX2Zp-36">
          <mxGeometry width="50" height="50" relative="1" as="geometry">
            <mxPoint x="520" y="616" as="sourcePoint" />
            <mxPoint x="570" y="566" as="targetPoint" />
          </mxGeometry>
        </mxCell>
        <mxCell id="OI-hIz22b7afXG1VX2Zp-42" value="" style="endArrow=none;html=1;rounded=0;curved=1;entryX=0;entryY=0.5;entryDx=0;entryDy=0;strokeColor=#A50040;fillColor=#d80073;" edge="1" parent="1" target="OI-hIz22b7afXG1VX2Zp-37">
          <mxGeometry width="50" height="50" relative="1" as="geometry">
            <mxPoint x="680" y="443" as="sourcePoint" />
            <mxPoint x="770" y="441" as="targetPoint" />
          </mxGeometry>
        </mxCell>
        <mxCell id="OI-hIz22b7afXG1VX2Zp-43" value="" style="endArrow=none;html=1;rounded=0;curved=1;exitX=1;exitY=0.3333333333333333;exitDx=0;exitDy=0;exitPerimeter=0;strokeColor=#A50040;fillColor=#d80073;" edge="1" parent="1" source="OI-hIz22b7afXG1VX2Zp-35">
          <mxGeometry width="50" height="50" relative="1" as="geometry">
            <mxPoint x="690" y="446" as="sourcePoint" />
            <mxPoint x="760" y="506" as="targetPoint" />
          </mxGeometry>
        </mxCell>
        <mxCell id="OI-hIz22b7afXG1VX2Zp-44" value="" style="endArrow=none;html=1;rounded=0;curved=1;entryX=0;entryY=0.5;entryDx=0;entryDy=0;strokeColor=#001DBC;fillColor=#0050ef;" edge="1" parent="1" target="OI-hIz22b7afXG1VX2Zp-37">
          <mxGeometry width="50" height="50" relative="1" as="geometry">
            <mxPoint x="680" y="508" as="sourcePoint" />
            <mxPoint x="770" y="519" as="targetPoint" />
          </mxGeometry>
        </mxCell>
        <mxCell id="OI-hIz22b7afXG1VX2Zp-45" value="" style="endArrow=none;html=1;rounded=0;curved=1;exitX=0.5;exitY=0.5;exitDx=0;exitDy=0;exitPerimeter=0;strokeColor=#001DBC;fillColor=#0050ef;" edge="1" parent="1" source="OI-hIz22b7afXG1VX2Zp-40">
          <mxGeometry width="50" height="50" relative="1" as="geometry">
            <mxPoint x="690" y="453" as="sourcePoint" />
            <mxPoint x="760" y="506" as="targetPoint" />
          </mxGeometry>
        </mxCell>
        <mxCell id="OI-hIz22b7afXG1VX2Zp-46" value="" style="ellipse;whiteSpace=wrap;html=1;aspect=fixed;fillColor=#dae8fc;strokeColor=#6c8ebf;" vertex="1" parent="1">
          <mxGeometry x="760" y="526" width="18" height="18" as="geometry" />
        </mxCell>
        <mxCell id="OI-hIz22b7afXG1VX2Zp-47" value="" style="endArrow=none;html=1;rounded=0;curved=1;entryX=0;entryY=0.5;entryDx=0;entryDy=0;exitX=1;exitY=0.3333333333333333;exitDx=0;exitDy=0;exitPerimeter=0;strokeColor=#E6E6E6;" edge="1" parent="1" source="OI-hIz22b7afXG1VX2Zp-35" target="OI-hIz22b7afXG1VX2Zp-46">
          <mxGeometry width="50" height="50" relative="1" as="geometry">
            <mxPoint x="680" y="446" as="sourcePoint" />
            <mxPoint x="770" y="516" as="targetPoint" />
          </mxGeometry>
        </mxCell>
        <mxCell id="OI-hIz22b7afXG1VX2Zp-48" value="" style="shape=flexArrow;endArrow=classic;html=1;rounded=0;curved=1;exitX=0;exitY=0.5;exitDx=0;exitDy=0;entryX=1;entryY=0.545;entryDx=0;entryDy=0;entryPerimeter=0;" edge="1" parent="1" source="OI-hIz22b7afXG1VX2Zp-1" target="OI-hIz22b7afXG1VX2Zp-25">
          <mxGeometry width="50" height="50" relative="1" as="geometry">
            <mxPoint x="540" y="546" as="sourcePoint" />
            <mxPoint x="590" y="496" as="targetPoint" />
          </mxGeometry>
        </mxCell>
        <mxCell id="OI-hIz22b7afXG1VX2Zp-49" value="&lt;div style=&quot;font-size: medium;&quot; data-hash=&quot;03570c042084f1fddb0df684d8715ba6&quot; data-version=&quot;3.0.0&quot;&gt;&lt;/div&gt;&lt;div style=&quot;&quot; class=&quot;document&quot;&gt;&lt;div style=&quot;&quot; class=&quot;section&quot;&gt;&lt;h3 style=&quot;line-height: 1.7; margin-top: 0pt; margin-bottom: 0pt; text-indent: -33.6pt; margin-left: 33.6pt;&quot; class=&quot;paragraph text-align-type-left tco-title-heading 3&quot;&gt;&lt;span style=&quot;color: rgb(26, 26, 26); letter-spacing: 0pt; vertical-align: baseline;&quot; data-font-family=&quot;default&quot;&gt;&lt;font style=&quot;font-size: 14px;&quot;&gt;i2i关联&lt;/font&gt;&lt;/span&gt;&lt;/h3&gt;&lt;h3 style=&quot;line-height: 1.7; margin-top: 0pt; margin-bottom: 0pt; text-indent: -33.6pt; margin-left: 33.6pt;&quot; class=&quot;paragraph text-align-type-left tco-title-heading 3&quot;&gt;&lt;span style=&quot;color: rgb(26, 26, 26); letter-spacing: 0pt; vertical-align: baseline;&quot; data-font-family=&quot;default&quot;&gt;&lt;font style=&quot;font-size: 14px;&quot;&gt;召回支路&lt;/font&gt;&lt;/span&gt;&lt;/h3&gt;&lt;/div&gt;&lt;/div&gt;" style="rounded=1;whiteSpace=wrap;html=1;align=center;fillColor=#f5f5f5;strokeColor=#666666;fontColor=#333333;" vertex="1" parent="1">
          <mxGeometry x="364" y="280" width="120" height="60" as="geometry" />
        </mxCell>
        <mxCell id="OI-hIz22b7afXG1VX2Zp-50" value="&lt;div data-version=&quot;3.0.0&quot; data-hash=&quot;2c4beaec3752a6b4e0ed659a5409c409&quot; style=&quot;font-size: medium;&quot;&gt;&lt;/div&gt;&lt;div class=&quot;document&quot; style=&quot;&quot;&gt;&lt;div class=&quot;section&quot; style=&quot;&quot;&gt;&lt;h3 class=&quot;paragraph text-align-type-left MsoNormal tco-title-heading 3&quot; style=&quot;line-height: 1.7; margin-top: 0pt; margin-bottom: 0pt; text-indent: -33.6pt; margin-left: 33.6pt;&quot;&gt;&lt;span data-font-family=&quot;default&quot; style=&quot;color: rgb(26, 26, 26); letter-spacing: 0pt; vertical-align: baseline;&quot;&gt;&lt;font style=&quot;font-size: 14px;&quot;&gt;i2i关联&lt;/font&gt;&lt;/span&gt;&lt;/h3&gt;&lt;h3 class=&quot;paragraph text-align-type-left MsoNormal tco-title-heading 3&quot; style=&quot;line-height: 1.7; margin-top: 0pt; margin-bottom: 0pt; text-indent: -33.6pt; margin-left: 33.6pt;&quot;&gt;&lt;span data-font-family=&quot;default&quot; style=&quot;color: rgb(26, 26, 26); letter-spacing: 0pt; vertical-align: baseline;&quot;&gt;&lt;font style=&quot;font-size: 14px;&quot;&gt;精排target&lt;/font&gt;&lt;/span&gt;&lt;font size=&quot;3&quot;&gt;&lt;span lang=&quot;EN-US&quot;&gt;&lt;/span&gt;&lt;/font&gt;&lt;/h3&gt;&lt;/div&gt;&lt;/div&gt;" style="rounded=1;whiteSpace=wrap;html=1;fillColor=#f5f5f5;strokeColor=#666666;fontColor=#333333;align=center;" vertex="1" parent="1">
          <mxGeometry x="364" y="195" width="120" height="60" as="geometry" />
        </mxCell>
        <mxCell id="OI-hIz22b7afXG1VX2Zp-51" value="&lt;font style=&quot;font-size: 14px;&quot;&gt;i2i&lt;/font&gt;" style="text;html=1;align=center;verticalAlign=middle;resizable=0;points=[];autosize=1;strokeColor=none;fillColor=none;fontStyle=1" vertex="1" parent="1">
          <mxGeometry x="515" y="359" width="40" height="30" as="geometry" />
        </mxCell>
        <mxCell id="OI-hIz22b7afXG1VX2Zp-52" value="关联挖掘" style="text;html=1;align=center;verticalAlign=middle;resizable=0;points=[];autosize=1;strokeColor=none;fillColor=none;" vertex="1" parent="1">
          <mxGeometry x="595" y="570" width="70" height="30" as="geometry" />
        </mxCell>
        <mxCell id="OI-hIz22b7afXG1VX2Zp-53" value="历史行为" style="text;html=1;align=center;verticalAlign=middle;resizable=0;points=[];autosize=1;strokeColor=none;fillColor=none;" vertex="1" parent="1">
          <mxGeometry x="696" y="570" width="70" height="30" as="geometry" />
        </mxCell>
        <mxCell id="OI-hIz22b7afXG1VX2Zp-54" value="召回i2i关联广告" style="text;html=1;align=center;verticalAlign=middle;resizable=0;points=[];autosize=1;strokeColor=none;fillColor=none;" vertex="1" parent="1">
          <mxGeometry x="230" y="295" width="110" height="30" as="geometry" />
        </mxCell>
        <mxCell id="OI-hIz22b7afXG1VX2Zp-55" value="i2i关联广告因子加权" style="text;html=1;align=center;verticalAlign=middle;resizable=0;points=[];autosize=1;strokeColor=none;fillColor=none;" vertex="1" parent="1">
          <mxGeometry x="220" y="210" width="130" height="30" as="geometry" />
        </mxCell>
        <mxCell id="OI-hIz22b7afXG1VX2Zp-56" value="&lt;div style=&quot;font-size: medium; text-align: start;&quot; data-hash=&quot;2c4beaec3752a6b4e0ed659a5409c409&quot; data-version=&quot;3.0.0&quot;&gt;&lt;/div&gt;&lt;div style=&quot;text-align: start;&quot; class=&quot;document&quot;&gt;&lt;div style=&quot;&quot; class=&quot;section&quot;&gt;&lt;h3 style=&quot;line-height: 1.7; margin-top: 0pt; margin-bottom: 0pt; text-indent: -33.6pt; margin-left: 33.6pt;&quot; class=&quot;paragraph text-align-type-left MsoNormal tco-title-heading 3&quot;&gt;&lt;br&gt;&lt;/h3&gt;&lt;/div&gt;&lt;/div&gt;" style="rounded=1;whiteSpace=wrap;html=1;fillColor=#d5e8d4;strokeColor=#82b366;" vertex="1" parent="1">
          <mxGeometry x="509" y="280" width="47" height="50" as="geometry" />
        </mxCell>
        <mxCell id="OI-hIz22b7afXG1VX2Zp-57" value="曝光相关广告" style="text;html=1;align=center;verticalAlign=middle;resizable=0;points=[];autosize=1;strokeColor=none;fillColor=none;" vertex="1" parent="1">
          <mxGeometry x="235" y="140" width="100" height="30" as="geometry" />
        </mxCell>
        <mxCell id="OI-hIz22b7afXG1VX2Zp-58" value="&lt;div style=&quot;font-size: medium; text-align: start;&quot; data-hash=&quot;2c4beaec3752a6b4e0ed659a5409c409&quot; data-version=&quot;3.0.0&quot;&gt;&lt;/div&gt;&lt;div style=&quot;text-align: start;&quot; class=&quot;document&quot;&gt;&lt;div style=&quot;&quot; class=&quot;section&quot;&gt;&lt;h3 style=&quot;line-height: 1.7; margin-top: 0pt; margin-bottom: 0pt; text-indent: -33.6pt; margin-left: 33.6pt;&quot; class=&quot;paragraph text-align-type-left MsoNormal tco-title-heading 3&quot;&gt;&lt;br&gt;&lt;/h3&gt;&lt;/div&gt;&lt;/div&gt;" style="rounded=1;whiteSpace=wrap;html=1;fillColor=#60a917;strokeColor=#2D7600;fontColor=#ffffff;" vertex="1" parent="1">
          <mxGeometry x="519" y="280" width="47" height="50" as="geometry" />
        </mxCell>
        <mxCell id="OI-hIz22b7afXG1VX2Zp-59" value="&lt;div style=&quot;font-size: medium; text-align: start;&quot; data-hash=&quot;2c4beaec3752a6b4e0ed659a5409c409&quot; data-version=&quot;3.0.0&quot;&gt;&lt;/div&gt;&lt;div style=&quot;&quot; class=&quot;document&quot;&gt;&lt;div style=&quot;&quot; class=&quot;section&quot;&gt;&lt;h3 style=&quot;line-height: 1.7; margin-top: 0pt; margin-bottom: 0pt; text-indent: -33.6pt; margin-left: 33.6pt;&quot; class=&quot;paragraph text-align-type-left MsoNormal tco-title-heading 3&quot;&gt;&lt;font style=&quot;font-size: 12px;&quot;&gt;ad&lt;/font&gt;&lt;/h3&gt;&lt;/div&gt;&lt;/div&gt;" style="rounded=1;whiteSpace=wrap;html=1;fillColor=#f0a30a;strokeColor=#BD7000;fontColor=#000000;" vertex="1" parent="1">
          <mxGeometry x="390" y="130" width="47" height="50" as="geometry" />
        </mxCell>
        <mxCell id="OI-hIz22b7afXG1VX2Zp-60" value="&lt;div style=&quot;font-size: medium; text-align: start;&quot; data-hash=&quot;2c4beaec3752a6b4e0ed659a5409c409&quot; data-version=&quot;3.0.0&quot;&gt;&lt;/div&gt;&lt;div style=&quot;text-align: start;&quot; class=&quot;document&quot;&gt;&lt;div style=&quot;&quot; class=&quot;section&quot;&gt;&lt;h3 style=&quot;line-height: 1.7; margin-top: 0pt; margin-bottom: 0pt; text-indent: -33.6pt; margin-left: 33.6pt;&quot; class=&quot;paragraph text-align-type-left MsoNormal tco-title-heading 3&quot;&gt;&lt;br&gt;&lt;/h3&gt;&lt;/div&gt;&lt;/div&gt;" style="rounded=1;whiteSpace=wrap;html=1;fillColor=#d5e8d4;strokeColor=#82b366;" vertex="1" parent="1">
          <mxGeometry x="509" y="200" width="47" height="50" as="geometry" />
        </mxCell>
        <mxCell id="OI-hIz22b7afXG1VX2Zp-61" value="&lt;div style=&quot;font-size: medium; text-align: start;&quot; data-hash=&quot;2c4beaec3752a6b4e0ed659a5409c409&quot; data-version=&quot;3.0.0&quot;&gt;&lt;/div&gt;&lt;div style=&quot;&quot; class=&quot;document&quot;&gt;&lt;div style=&quot;&quot; class=&quot;section&quot;&gt;&lt;h3 style=&quot;line-height: 1.7; margin-top: 0pt; margin-bottom: 0pt; text-indent: -33.6pt; margin-left: 33.6pt;&quot; class=&quot;paragraph text-align-type-left MsoNormal tco-title-heading 3&quot;&gt;&lt;br&gt;&lt;/h3&gt;&lt;/div&gt;&lt;/div&gt;" style="rounded=1;whiteSpace=wrap;html=1;fillColor=#f0a30a;strokeColor=#BD7000;fontColor=#000000;" vertex="1" parent="1">
          <mxGeometry x="521.5" y="200" width="47" height="50" as="geometry" />
        </mxCell>
        <mxCell id="OI-hIz22b7afXG1VX2Zp-62" style="edgeStyle=none;rounded=0;orthogonalLoop=1;jettySize=auto;html=1;exitX=0;exitY=0;exitDx=0;exitDy=0;" edge="1" parent="1" source="OI-hIz22b7afXG1VX2Zp-56" target="OI-hIz22b7afXG1VX2Zp-56">
          <mxGeometry relative="1" as="geometry" />
        </mxCell>
        <mxCell id="OI-hIz22b7afXG1VX2Zp-63" value="&lt;div style=&quot;font-size: medium; text-align: start;&quot; data-hash=&quot;2c4beaec3752a6b4e0ed659a5409c409&quot; data-version=&quot;3.0.0&quot;&gt;&lt;/div&gt;&lt;div style=&quot;text-align: start;&quot; class=&quot;document&quot;&gt;&lt;div style=&quot;&quot; class=&quot;section&quot;&gt;&lt;h3 style=&quot;line-height: 1.7; margin-top: 0pt; margin-bottom: 0pt; text-indent: -33.6pt; margin-left: 33.6pt;&quot; class=&quot;paragraph text-align-type-left MsoNormal tco-title-heading 3&quot;&gt;&lt;br&gt;&lt;/h3&gt;&lt;/div&gt;&lt;/div&gt;" style="rounded=1;whiteSpace=wrap;html=1;fillColor=#dae8fc;strokeColor=#6c8ebf;" vertex="1" parent="1">
          <mxGeometry x="532" y="280" width="47" height="50" as="geometry" />
        </mxCell>
        <mxCell id="OI-hIz22b7afXG1VX2Zp-64" value="&lt;div style=&quot;font-size: medium; text-align: start;&quot; data-hash=&quot;2c4beaec3752a6b4e0ed659a5409c409&quot; data-version=&quot;3.0.0&quot;&gt;&lt;/div&gt;&lt;div style=&quot;&quot; class=&quot;document&quot;&gt;&lt;div style=&quot;&quot; class=&quot;section&quot;&gt;&lt;h3 style=&quot;line-height: 1.7; margin-top: 0pt; margin-bottom: 0pt; text-indent: -33.6pt; margin-left: 33.6pt;&quot; class=&quot;paragraph text-align-type-left MsoNormal tco-title-heading 3&quot;&gt;&lt;br&gt;&lt;/h3&gt;&lt;/div&gt;&lt;/div&gt;" style="rounded=1;whiteSpace=wrap;html=1;fillColor=#f0a30a;strokeColor=#BD7000;fontColor=#000000;" vertex="1" parent="1">
          <mxGeometry x="546.5" y="280" width="47" height="50" as="geometry" />
        </mxCell>
        <mxCell id="OI-hIz22b7afXG1VX2Zp-65" style="edgeStyle=none;rounded=0;orthogonalLoop=1;jettySize=auto;html=1;exitX=0;exitY=0.5;exitDx=0;exitDy=0;" edge="1" parent="1" source="OI-hIz22b7afXG1VX2Zp-58" target="OI-hIz22b7afXG1VX2Zp-58">
          <mxGeometry relative="1" as="geometry" />
        </mxCell>
        <mxCell id="OI-hIz22b7afXG1VX2Zp-66" style="edgeStyle=orthogonalEdgeStyle;rounded=0;orthogonalLoop=1;jettySize=auto;html=1;entryX=-0.004;entryY=0.41;entryDx=0;entryDy=0;entryPerimeter=0;strokeColor=#B9E0A5;" edge="1" parent="1" source="OI-hIz22b7afXG1VX2Zp-6" target="OI-hIz22b7afXG1VX2Zp-57">
          <mxGeometry relative="1" as="geometry">
            <Array as="points">
              <mxPoint x="90" y="467" />
              <mxPoint x="90" y="152" />
            </Array>
          </mxGeometry>
        </mxCell>
        <mxCell id="OI-hIz22b7afXG1VX2Zp-67" value="&lt;font style=&quot;font-size: 18px;&quot;&gt;目标&lt;/font&gt;" style="edgeLabel;html=1;align=center;verticalAlign=middle;resizable=0;points=[];" vertex="1" connectable="0" parent="OI-hIz22b7afXG1VX2Zp-66">
          <mxGeometry x="0.3873" y="1" relative="1" as="geometry">
            <mxPoint as="offset" />
          </mxGeometry>
        </mxCell>
        <mxCell id="OI-hIz22b7afXG1VX2Zp-68" value="" style="endArrow=none;html=1;rounded=0;" edge="1" parent="1">
          <mxGeometry width="50" height="50" relative="1" as="geometry">
            <mxPoint x="220" y="354" as="sourcePoint" />
            <mxPoint x="640" y="354" as="targetPoint" />
          </mxGeometry>
        </mxCell>
        <mxCell id="OI-hIz22b7afXG1VX2Zp-69" value="&lt;div data-version=&quot;3.0.0&quot; data-hash=&quot;2c4beaec3752a6b4e0ed659a5409c409&quot; style=&quot;font-size: medium;&quot;&gt;&lt;/div&gt;&lt;div class=&quot;document&quot; style=&quot;&quot;&gt;&lt;div class=&quot;section&quot; style=&quot;&quot;&gt;&lt;h3 class=&quot;paragraph text-align-type-left MsoNormal tco-title-heading 3&quot; style=&quot;line-height: 1.7; margin-top: 0pt; margin-bottom: 0pt; text-indent: -33.6pt; margin-left: 33.6pt;&quot;&gt;&lt;font style=&quot;font-size: 12px; font-weight: normal;&quot;&gt;ads&lt;/font&gt;&lt;/h3&gt;&lt;/div&gt;&lt;/div&gt;" style="rounded=1;whiteSpace=wrap;html=1;fillColor=#dae8fc;strokeColor=#6c8ebf;align=center;" vertex="1" parent="1">
          <mxGeometry x="561" y="280" width="47" height="50" as="geometry" />
        </mxCell>
        <mxCell id="OI-hIz22b7afXG1VX2Zp-70" value="&lt;div data-version=&quot;3.0.0&quot; data-hash=&quot;2c4beaec3752a6b4e0ed659a5409c409&quot; style=&quot;font-size: medium;&quot;&gt;&lt;/div&gt;&lt;div class=&quot;document&quot; style=&quot;&quot;&gt;&lt;div class=&quot;section&quot; style=&quot;&quot;&gt;&lt;h3 class=&quot;paragraph text-align-type-left MsoNormal tco-title-heading 3&quot; style=&quot;line-height: 1.7; margin-top: 0pt; margin-bottom: 0pt; text-indent: -33.6pt; margin-left: 33.6pt;&quot;&gt;&lt;font style=&quot;font-size: 12px; font-weight: normal;&quot;&gt;ads&lt;/font&gt;&lt;/h3&gt;&lt;/div&gt;&lt;/div&gt;" style="rounded=1;whiteSpace=wrap;html=1;fillColor=#f5f5f5;strokeColor=#666666;align=center;fontColor=#333333;" vertex="1" parent="1">
          <mxGeometry x="539.5" y="200" width="47" height="50" as="geometry" />
        </mxCell>
        <mxCell id="OI-hIz22b7afXG1VX2Zp-71" value="总体思路" style="text;html=1;align=center;verticalAlign=middle;resizable=0;points=[];autosize=1;strokeColor=none;fillColor=none;" vertex="1" parent="1">
          <mxGeometry x="315" y="48" width="70" height="30" as="geometry" />
        </mxCell>
      </root>
    </mxGraphModel>
  </diagram>
  <diagram name="总体架构" id="qinP8k9tqAQhSnErQ5jV">
    <mxGraphModel dx="1242" dy="773" grid="0" gridSize="10" guides="1" tooltips="1" connect="1" arrows="1" fold="1" page="0" pageScale="1" pageWidth="850" pageHeight="1100" math="0" shadow="0">
      <root>
        <mxCell id="0" />
        <mxCell id="1" parent="0" />
        <mxCell id="WeVGeyATEP2TrUEI9uky-103" value="" style="group" parent="1" vertex="1" connectable="0">
          <mxGeometry x="492" y="750" width="156.25" height="100" as="geometry" />
        </mxCell>
        <mxCell id="WeVGeyATEP2TrUEI9uky-64" value="广告库&lt;div&gt;&lt;br&gt;&lt;/div&gt;&lt;div&gt;&lt;br&gt;&lt;/div&gt;&lt;div&gt;&lt;br&gt;&lt;/div&gt;&lt;div&gt;&lt;br&gt;&lt;/div&gt;&lt;div&gt;&lt;br&gt;&lt;/div&gt;&lt;div&gt;&lt;br&gt;&lt;/div&gt;&lt;div&gt;&lt;br&gt;&lt;/div&gt;&lt;div&gt;&lt;br&gt;&lt;/div&gt;&lt;div&gt;&lt;br&gt;&lt;/div&gt;&lt;div&gt;&lt;br&gt;&lt;/div&gt;" style="shape=cylinder3;whiteSpace=wrap;html=1;boundedLbl=1;backgroundOutline=1;size=15;" parent="WeVGeyATEP2TrUEI9uky-103" vertex="1">
          <mxGeometry width="156.25" height="100" as="geometry" />
        </mxCell>
        <mxCell id="WeVGeyATEP2TrUEI9uky-78" value="精选广告" style="rounded=1;whiteSpace=wrap;html=1;fillColor=#d5e8d4;strokeColor=#82b366;" parent="WeVGeyATEP2TrUEI9uky-103" vertex="1">
          <mxGeometry x="42.92443273905997" y="57.142857142857146" width="70.40113452188005" height="28.571428571428573" as="geometry" />
        </mxCell>
        <mxCell id="2" value="广告池" style="whiteSpace=wrap;strokeWidth=2;verticalAlign=top;" parent="1" vertex="1">
          <mxGeometry x="529" y="8" width="385" height="129" as="geometry" />
        </mxCell>
        <mxCell id="3" value="匹配广告1" style="fillColor=none;strokeColor=none;" parent="2" vertex="1" overrideArrowHead="circle">
          <mxGeometry x="43" y="46" width="132" height="54" as="geometry" />
        </mxCell>
        <mxCell id="4" value="匹配广告2" style="fillColor=none;strokeColor=none;" parent="2" vertex="1" overrideArrowHead="circle">
          <mxGeometry x="225" y="46" width="132" height="54" as="geometry" />
        </mxCell>
        <mxCell id="5" value="意向用户集合" style="whiteSpace=wrap;strokeWidth=2;verticalAlign=top;" parent="1" vertex="1">
          <mxGeometry x="529" y="187" width="385" height="129" as="geometry" />
        </mxCell>
        <mxCell id="6" value="意向用户1" style="fillColor=none;strokeColor=none;" parent="5" vertex="1" overrideArrowHead="circle">
          <mxGeometry x="43" y="46" width="132" height="54" as="geometry" />
        </mxCell>
        <mxCell id="7" value="意向用户2" style="fillColor=none;strokeColor=none;" parent="5" vertex="1" overrideArrowHead="circle">
          <mxGeometry x="225" y="46" width="132" height="54" as="geometry" />
        </mxCell>
        <mxCell id="8" value="广告集合" style="whiteSpace=wrap;strokeWidth=2;verticalAlign=top;" parent="1" vertex="1">
          <mxGeometry x="8" y="8" width="471" height="129" as="geometry" />
        </mxCell>
        <mxCell id="9" value="广告1" style="fillColor=none;strokeColor=none;" parent="8" vertex="1" overrideArrowHead="circle">
          <mxGeometry x="43" y="46" width="100" height="54" as="geometry" />
        </mxCell>
        <mxCell id="10" value="广告2" style="fillColor=none;strokeColor=none;" parent="8" vertex="1" overrideArrowHead="circle">
          <mxGeometry x="193" y="46" width="100" height="54" as="geometry" />
        </mxCell>
        <mxCell id="11" value="广告3" style="fillColor=none;strokeColor=none;" parent="8" vertex="1" overrideArrowHead="circle">
          <mxGeometry x="344" y="46" width="100" height="54" as="geometry" />
        </mxCell>
        <mxCell id="12" value="用户集合" style="whiteSpace=wrap;strokeWidth=2;verticalAlign=top;" parent="1" vertex="1">
          <mxGeometry x="8" y="187" width="471" height="129" as="geometry" />
        </mxCell>
        <mxCell id="13" value="用户1" style="fillColor=none;strokeColor=none;" parent="12" vertex="1" overrideArrowHead="circle">
          <mxGeometry x="43" y="46" width="100" height="54" as="geometry" />
        </mxCell>
        <mxCell id="14" value="用户2" style="fillColor=none;strokeColor=none;" parent="12" vertex="1" overrideArrowHead="circle">
          <mxGeometry x="193" y="46" width="100" height="54" as="geometry" />
        </mxCell>
        <mxCell id="15" value="用户3" style="fillColor=none;strokeColor=none;" parent="12" vertex="1" overrideArrowHead="circle">
          <mxGeometry x="344" y="46" width="100" height="54" as="geometry" />
        </mxCell>
        <mxCell id="16" value="匹配用户" style="fillColor=none;strokeColor=none;" parent="1" vertex="1">
          <mxGeometry x="964" y="225" width="124" height="54" as="geometry" />
        </mxCell>
        <mxCell id="17" value="匹配广告" style="fillColor=none;strokeColor=none;" parent="1" vertex="1">
          <mxGeometry x="1138" y="225" width="124" height="54" as="geometry" />
        </mxCell>
        <mxCell id="18" value="推荐广告" style="fillColor=none;strokeColor=none;" parent="1" vertex="1">
          <mxGeometry x="1312" y="225" width="124" height="54" as="geometry" />
        </mxCell>
        <mxCell id="19" value="" style="curved=1;startArrow=circle;startFill=0;endArrow=circle;endFill=0;exitX=1;exitY=0.49;entryX=0;entryY=0.49;" parent="1" source="16" target="17" edge="1">
          <mxGeometry relative="1" as="geometry">
            <Array as="points" />
          </mxGeometry>
        </mxCell>
        <mxCell id="20" value="" style="curved=1;startArrow=none;endArrow=circle;endFill=0;exitX=1;exitY=0.49;entryX=0;entryY=0.49;" parent="1" source="17" target="18" edge="1">
          <mxGeometry relative="1" as="geometry">
            <Array as="points" />
          </mxGeometry>
        </mxCell>
        <mxCell id="21" value="" style="curved=1;startArrow=none;endArrow=block;exitX=1;exitY=0.5;entryX=0;entryY=0.5;" parent="1" source="12" target="5" edge="1">
          <mxGeometry relative="1" as="geometry">
            <Array as="points" />
          </mxGeometry>
        </mxCell>
        <mxCell id="22" value="" style="curved=1;startArrow=none;endArrow=block;exitX=1;exitY=0.5;entryX=0;entryY=0.5;" parent="1" source="8" target="2" edge="1">
          <mxGeometry relative="1" as="geometry">
            <Array as="points" />
          </mxGeometry>
        </mxCell>
        <mxCell id="23" value="" style="curved=1;startArrow=none;endArrow=block;exitX=1;exitY=0.5;entryX=0;entryY=0.49;" parent="1" source="5" target="16" edge="1">
          <mxGeometry relative="1" as="geometry">
            <Array as="points" />
          </mxGeometry>
        </mxCell>
        <mxCell id="WeVGeyATEP2TrUEI9uky-29" value="用户集合&lt;div&gt;&lt;br&gt;&lt;/div&gt;&lt;div&gt;&lt;br&gt;&lt;/div&gt;&lt;div&gt;&lt;br&gt;&lt;/div&gt;&lt;div&gt;&lt;br&gt;&lt;/div&gt;&lt;div&gt;&lt;br&gt;&lt;div&gt;&lt;br&gt;&lt;/div&gt;&lt;div&gt;&lt;br&gt;&lt;/div&gt;&lt;div&gt;&lt;br&gt;&lt;/div&gt;&lt;div&gt;&lt;br&gt;&lt;/div&gt;&lt;div&gt;&lt;br&gt;&lt;/div&gt;&lt;div&gt;&lt;br&gt;&lt;/div&gt;&lt;div&gt;&lt;br&gt;&lt;/div&gt;&lt;div&gt;&lt;br&gt;&lt;/div&gt;&lt;div&gt;&lt;br&gt;&lt;/div&gt;&lt;/div&gt;" style="rounded=0;whiteSpace=wrap;html=1;" parent="1" vertex="1">
          <mxGeometry x="100" y="390" width="260" height="240" as="geometry" />
        </mxCell>
        <mxCell id="WeVGeyATEP2TrUEI9uky-30" value="高价值用户" style="rounded=0;whiteSpace=wrap;html=1;" parent="1" vertex="1">
          <mxGeometry x="170" y="550" width="120" height="60" as="geometry" />
        </mxCell>
        <mxCell id="WeVGeyATEP2TrUEI9uky-40" value="广告集合&lt;div&gt;&lt;br&gt;&lt;/div&gt;&lt;div&gt;&lt;br&gt;&lt;/div&gt;&lt;div&gt;&lt;br&gt;&lt;/div&gt;&lt;div&gt;&lt;br&gt;&lt;/div&gt;&lt;div&gt;&lt;br&gt;&lt;/div&gt;&lt;div&gt;&lt;br&gt;&lt;/div&gt;&lt;div&gt;&lt;br&gt;&lt;/div&gt;&lt;div&gt;&lt;br&gt;&lt;/div&gt;&lt;div&gt;&lt;br&gt;&lt;/div&gt;&lt;div&gt;&lt;br&gt;&lt;/div&gt;&lt;div&gt;&lt;br&gt;&lt;/div&gt;&lt;div&gt;&lt;br&gt;&lt;/div&gt;&lt;div&gt;&lt;br&gt;&lt;/div&gt;" style="rounded=0;whiteSpace=wrap;html=1;" parent="1" vertex="1">
          <mxGeometry x="590" y="390" width="291" height="240" as="geometry" />
        </mxCell>
        <mxCell id="WeVGeyATEP2TrUEI9uky-41" value="精选商品广告" style="rounded=0;whiteSpace=wrap;html=1;" parent="1" vertex="1">
          <mxGeometry x="675.5" y="550" width="120" height="60" as="geometry" />
        </mxCell>
        <mxCell id="WeVGeyATEP2TrUEI9uky-44" value="其他广告" style="rounded=0;whiteSpace=wrap;html=1;" parent="1" vertex="1">
          <mxGeometry x="675.5" y="450" width="120" height="60" as="geometry" />
        </mxCell>
        <mxCell id="WeVGeyATEP2TrUEI9uky-46" value="i2i召回小模型" style="ellipse;shape=cloud;whiteSpace=wrap;html=1;" parent="1" vertex="1">
          <mxGeometry x="425" y="540" width="120" height="80" as="geometry" />
        </mxCell>
        <mxCell id="WeVGeyATEP2TrUEI9uky-48" value="" style="shape=flexArrow;endArrow=classic;html=1;rounded=0;exitX=1;exitY=0.5;exitDx=0;exitDy=0;" parent="1" source="WeVGeyATEP2TrUEI9uky-30" edge="1">
          <mxGeometry width="50" height="50" relative="1" as="geometry">
            <mxPoint x="540" y="420" as="sourcePoint" />
            <mxPoint x="420" y="580" as="targetPoint" />
          </mxGeometry>
        </mxCell>
        <mxCell id="WeVGeyATEP2TrUEI9uky-50" value="" style="shape=flexArrow;endArrow=classic;html=1;rounded=0;exitX=1;exitY=0.5;exitDx=0;exitDy=0;" parent="1" edge="1">
          <mxGeometry width="50" height="50" relative="1" as="geometry">
            <mxPoint x="550" y="579.5" as="sourcePoint" />
            <mxPoint x="666" y="579.5" as="targetPoint" />
          </mxGeometry>
        </mxCell>
        <mxCell id="WeVGeyATEP2TrUEI9uky-52" value="粗排直通" style="ellipse;shape=cloud;whiteSpace=wrap;html=1;" parent="1" vertex="1">
          <mxGeometry x="930" y="540" width="120" height="80" as="geometry" />
        </mxCell>
        <mxCell id="WeVGeyATEP2TrUEI9uky-53" value="精排直通&lt;div&gt;小quota&lt;/div&gt;" style="ellipse;shape=cloud;whiteSpace=wrap;html=1;" parent="1" vertex="1">
          <mxGeometry x="1100" y="540" width="120" height="80" as="geometry" />
        </mxCell>
        <mxCell id="WeVGeyATEP2TrUEI9uky-55" value="其他用户" style="rounded=0;whiteSpace=wrap;html=1;" parent="1" vertex="1">
          <mxGeometry x="170" y="450" width="120" height="60" as="geometry" />
        </mxCell>
        <mxCell id="WeVGeyATEP2TrUEI9uky-56" value="实时小模型" style="rounded=0;whiteSpace=wrap;html=1;" parent="1" vertex="1">
          <mxGeometry x="510" y="900" width="120" height="60" as="geometry" />
        </mxCell>
        <mxCell id="WeVGeyATEP2TrUEI9uky-87" value="" style="edgeStyle=orthogonalEdgeStyle;rounded=0;orthogonalLoop=1;jettySize=auto;html=1;" parent="1" source="WeVGeyATEP2TrUEI9uky-80" target="WeVGeyATEP2TrUEI9uky-56" edge="1">
          <mxGeometry relative="1" as="geometry" />
        </mxCell>
        <mxCell id="WeVGeyATEP2TrUEI9uky-91" value="请求" style="edgeLabel;html=1;align=center;verticalAlign=middle;resizable=0;points=[];" parent="WeVGeyATEP2TrUEI9uky-87" vertex="1" connectable="0">
          <mxGeometry x="-0.12" y="1" relative="1" as="geometry">
            <mxPoint as="offset" />
          </mxGeometry>
        </mxCell>
        <mxCell id="WeVGeyATEP2TrUEI9uky-80" value="用户" style="shape=umlActor;verticalLabelPosition=bottom;verticalAlign=top;html=1;outlineConnect=0;" parent="1" vertex="1">
          <mxGeometry x="372" y="900" width="30" height="60" as="geometry" />
        </mxCell>
        <mxCell id="WeVGeyATEP2TrUEI9uky-88" value="" style="endArrow=classic;html=1;rounded=0;exitX=1;exitY=0.5;exitDx=0;exitDy=0;entryX=0;entryY=0.5;entryDx=0;entryDy=0;" parent="1" source="WeVGeyATEP2TrUEI9uky-56" edge="1" target="WeVGeyATEP2TrUEI9uky-89">
          <mxGeometry width="50" height="50" relative="1" as="geometry">
            <mxPoint x="680" y="930" as="sourcePoint" />
            <mxPoint x="750" y="930" as="targetPoint" />
          </mxGeometry>
        </mxCell>
        <mxCell id="WeVGeyATEP2TrUEI9uky-98" value="推荐" style="edgeLabel;html=1;align=center;verticalAlign=middle;resizable=0;points=[];" parent="WeVGeyATEP2TrUEI9uky-88" vertex="1" connectable="0">
          <mxGeometry x="0.0333" y="2" relative="1" as="geometry">
            <mxPoint as="offset" />
          </mxGeometry>
        </mxCell>
        <mxCell id="WeVGeyATEP2TrUEI9uky-89" value="推荐感广告" style="rounded=1;whiteSpace=wrap;html=1;fillColor=#d5e8d4;strokeColor=#82b366;" parent="1" vertex="1">
          <mxGeometry x="765" y="910" width="69.5" height="40" as="geometry" />
        </mxCell>
        <mxCell id="WeVGeyATEP2TrUEI9uky-68" value="全量用户&lt;div&gt;&lt;br&gt;&lt;/div&gt;&lt;div&gt;&lt;br&gt;&lt;/div&gt;&lt;div&gt;&lt;br&gt;&lt;/div&gt;&lt;div&gt;&lt;br&gt;&lt;/div&gt;&lt;div&gt;&lt;br&gt;&lt;/div&gt;&lt;div&gt;&lt;br&gt;&lt;/div&gt;&lt;div&gt;&lt;br&gt;&lt;/div&gt;&lt;div&gt;&lt;br&gt;&lt;/div&gt;&lt;div&gt;&lt;br&gt;&lt;/div&gt;&lt;div&gt;&lt;br&gt;&lt;/div&gt;&lt;div&gt;&lt;br&gt;&lt;/div&gt;&lt;div&gt;&lt;br&gt;&lt;/div&gt;&lt;div&gt;&lt;br&gt;&lt;/div&gt;" style="shape=cylinder3;whiteSpace=wrap;html=1;boundedLbl=1;backgroundOutline=1;size=15;" parent="1" vertex="1">
          <mxGeometry x="163.5" y="855" width="160" height="130" as="geometry" />
        </mxCell>
        <mxCell id="WeVGeyATEP2TrUEI9uky-117" value="" style="edgeStyle=orthogonalEdgeStyle;rounded=0;orthogonalLoop=1;jettySize=auto;html=1;" parent="1" source="WeVGeyATEP2TrUEI9uky-76" target="WeVGeyATEP2TrUEI9uky-80" edge="1">
          <mxGeometry relative="1" as="geometry" />
        </mxCell>
        <mxCell id="WeVGeyATEP2TrUEI9uky-76" value="高价值用户" style="rounded=1;whiteSpace=wrap;html=1;fillColor=#dae8fc;strokeColor=#6c8ebf;" parent="1" vertex="1">
          <mxGeometry x="214.00411764705885" y="911.4285714285713" width="65.41176470588235" height="37.142857142857146" as="geometry" />
        </mxCell>
        <mxCell id="WeVGeyATEP2TrUEI9uky-99" style="edgeStyle=orthogonalEdgeStyle;rounded=0;orthogonalLoop=1;jettySize=auto;html=1;exitX=0.5;exitY=1;exitDx=0;exitDy=0;entryX=0.5;entryY=0;entryDx=0;entryDy=0;" parent="1" source="WeVGeyATEP2TrUEI9uky-78" target="WeVGeyATEP2TrUEI9uky-56" edge="1">
          <mxGeometry relative="1" as="geometry" />
        </mxCell>
        <mxCell id="WeVGeyATEP2TrUEI9uky-109" value="" style="edgeStyle=orthogonalEdgeStyle;rounded=0;orthogonalLoop=1;jettySize=auto;html=1;exitX=0.5;exitY=0;exitDx=0;exitDy=0;entryX=0.5;entryY=1;entryDx=0;entryDy=0;" parent="1" source="WeVGeyATEP2TrUEI9uky-114" target="gdvW_6OQz8zFMiyGwCSC-35" edge="1">
          <mxGeometry relative="1" as="geometry">
            <mxPoint x="570" y="1040" as="sourcePoint" />
          </mxGeometry>
        </mxCell>
        <mxCell id="gdvW_6OQz8zFMiyGwCSC-32" value="" style="edgeStyle=orthogonalEdgeStyle;rounded=0;orthogonalLoop=1;jettySize=auto;html=1;" edge="1" parent="1" source="WeVGeyATEP2TrUEI9uky-113" target="gdvW_6OQz8zFMiyGwCSC-25">
          <mxGeometry relative="1" as="geometry" />
        </mxCell>
        <mxCell id="WeVGeyATEP2TrUEI9uky-113" value="实时广告域流水" style="shape=document;whiteSpace=wrap;html=1;boundedLbl=1;" parent="1" vertex="1">
          <mxGeometry x="411.93" y="1170" width="118.07" height="40" as="geometry" />
        </mxCell>
        <mxCell id="WeVGeyATEP2TrUEI9uky-114" value="样本融合" style="rounded=1;whiteSpace=wrap;html=1;" parent="1" vertex="1">
          <mxGeometry x="495" y="1023" width="150" height="29" as="geometry" />
        </mxCell>
        <mxCell id="gdvW_6OQz8zFMiyGwCSC-24" style="edgeStyle=orthogonalEdgeStyle;rounded=0;orthogonalLoop=1;jettySize=auto;html=1;exitX=0.5;exitY=0;exitDx=0;exitDy=0;entryX=0.5;entryY=1;entryDx=0;entryDy=0;" edge="1" parent="1" source="gdvW_6OQz8zFMiyGwCSC-23" target="gdvW_6OQz8zFMiyGwCSC-26">
          <mxGeometry relative="1" as="geometry">
            <mxPoint x="568.06" y="1100" as="targetPoint" />
          </mxGeometry>
        </mxCell>
        <mxCell id="gdvW_6OQz8zFMiyGwCSC-23" value="实时内容域流水" style="shape=document;whiteSpace=wrap;html=1;boundedLbl=1;" vertex="1" parent="1">
          <mxGeometry x="610" y="1170" width="120" height="40" as="geometry" />
        </mxCell>
        <mxCell id="ZzjQxvBzT8ur59nGPBBm-27" value="" style="edgeStyle=orthogonalEdgeStyle;rounded=0;orthogonalLoop=1;jettySize=auto;html=1;strokeColor=#8C8C8C;" edge="1" parent="1" source="gdvW_6OQz8zFMiyGwCSC-25" target="ZzjQxvBzT8ur59nGPBBm-24">
          <mxGeometry relative="1" as="geometry" />
        </mxCell>
        <mxCell id="gdvW_6OQz8zFMiyGwCSC-25" value="精选广告域样本" style="rounded=1;whiteSpace=wrap;html=1;" vertex="1" parent="1">
          <mxGeometry x="411.93" y="1110" width="118.07" height="30" as="geometry" />
        </mxCell>
        <mxCell id="gdvW_6OQz8zFMiyGwCSC-34" style="edgeStyle=orthogonalEdgeStyle;rounded=0;orthogonalLoop=1;jettySize=auto;html=1;exitX=0.5;exitY=0;exitDx=0;exitDy=0;entryX=0.5;entryY=1;entryDx=0;entryDy=0;" edge="1" parent="1" source="gdvW_6OQz8zFMiyGwCSC-26" target="WeVGeyATEP2TrUEI9uky-114">
          <mxGeometry relative="1" as="geometry" />
        </mxCell>
        <mxCell id="ZzjQxvBzT8ur59nGPBBm-26" value="映射" style="edgeLabel;html=1;align=center;verticalAlign=middle;resizable=0;points=[];" vertex="1" connectable="0" parent="gdvW_6OQz8zFMiyGwCSC-34">
          <mxGeometry x="-0.1749" y="1" relative="1" as="geometry">
            <mxPoint as="offset" />
          </mxGeometry>
        </mxCell>
        <mxCell id="gdvW_6OQz8zFMiyGwCSC-26" value="精选内容域样本" style="rounded=1;whiteSpace=wrap;html=1;" vertex="1" parent="1">
          <mxGeometry x="613.06" y="1110" width="110" height="30" as="geometry" />
        </mxCell>
        <mxCell id="gdvW_6OQz8zFMiyGwCSC-31" style="edgeStyle=orthogonalEdgeStyle;rounded=0;orthogonalLoop=1;jettySize=auto;html=1;exitX=0.5;exitY=0;exitDx=0;exitDy=0;entryX=0.5;entryY=1;entryDx=0;entryDy=0;" edge="1" parent="1" source="gdvW_6OQz8zFMiyGwCSC-25" target="WeVGeyATEP2TrUEI9uky-114">
          <mxGeometry relative="1" as="geometry">
            <mxPoint x="463.58267" y="1099.01" as="targetPoint" />
          </mxGeometry>
        </mxCell>
        <mxCell id="gdvW_6OQz8zFMiyGwCSC-36" style="edgeStyle=orthogonalEdgeStyle;rounded=0;orthogonalLoop=1;jettySize=auto;html=1;exitX=0.5;exitY=0;exitDx=0;exitDy=0;entryX=0.5;entryY=1;entryDx=0;entryDy=0;" edge="1" parent="1" source="gdvW_6OQz8zFMiyGwCSC-35" target="WeVGeyATEP2TrUEI9uky-56">
          <mxGeometry relative="1" as="geometry" />
        </mxCell>
        <mxCell id="gdvW_6OQz8zFMiyGwCSC-35" value="特征精选" style="rounded=1;whiteSpace=wrap;html=1;" vertex="1" parent="1">
          <mxGeometry x="495" y="984" width="150" height="29" as="geometry" />
        </mxCell>
        <mxCell id="ZzjQxvBzT8ur59nGPBBm-24" value="1.强正向行为：如点击、转化、点赞&lt;div&gt;2.强负向行为：负反馈、快滑&lt;/div&gt;&lt;div&gt;3.随机负采样&lt;/div&gt;" style="text;html=1;align=left;verticalAlign=middle;resizable=0;points=[];autosize=1;strokeColor=default;fillColor=none;dashed=1;dashPattern=8 8;" vertex="1" parent="1">
          <mxGeometry x="170" y="1097.5" width="208" height="55" as="geometry" />
        </mxCell>
        <mxCell id="ZzjQxvBzT8ur59nGPBBm-25" value="强正向行为：搜索、评论、转发、点赞等" style="text;html=1;align=left;verticalAlign=middle;resizable=0;points=[];autosize=1;strokeColor=default;fillColor=none;dashed=1;dashPattern=8 8;" vertex="1" parent="1">
          <mxGeometry x="749" y="1112" width="234" height="26" as="geometry" />
        </mxCell>
      </root>
    </mxGraphModel>
  </diagram>
  <diagram id="ewN9J9s_fj7f4-4imcri" name="样本设计">
    <mxGraphModel dx="1242" dy="773" grid="1" gridSize="10" guides="1" tooltips="1" connect="1" arrows="1" fold="1" page="1" pageScale="1" pageWidth="850" pageHeight="1100" math="0" shadow="0">
      <root>
        <mxCell id="0" />
        <mxCell id="1" parent="0" />
        <mxCell id="V_wZHmumi39xLVVslMNS-7" value="" style="edgeStyle=orthogonalEdgeStyle;rounded=0;orthogonalLoop=1;jettySize=auto;html=1;" parent="1" source="QvL4Bcm-4klgUwtI3iMm-4" target="V_wZHmumi39xLVVslMNS-1" edge="1">
          <mxGeometry relative="1" as="geometry" />
        </mxCell>
        <mxCell id="QvL4Bcm-4klgUwtI3iMm-4" value="PCTR样本流" style="rounded=0;whiteSpace=wrap;html=1;" parent="1" vertex="1">
          <mxGeometry x="170" y="190" width="120" height="30" as="geometry" />
        </mxCell>
        <mxCell id="V_wZHmumi39xLVVslMNS-8" value="" style="edgeStyle=orthogonalEdgeStyle;rounded=0;orthogonalLoop=1;jettySize=auto;html=1;" parent="1" source="QvL4Bcm-4klgUwtI3iMm-5" target="V_wZHmumi39xLVVslMNS-1" edge="1">
          <mxGeometry relative="1" as="geometry" />
        </mxCell>
        <mxCell id="QvL4Bcm-4klgUwtI3iMm-5" value="PCVR样本流" style="rounded=0;whiteSpace=wrap;html=1;" parent="1" vertex="1">
          <mxGeometry x="170" y="240" width="120" height="30" as="geometry" />
        </mxCell>
        <mxCell id="apU2YjhtMBtgAtZRkx56-1" value="实时广告域流水" style="shape=document;whiteSpace=wrap;html=1;boundedLbl=1;" parent="1" vertex="1">
          <mxGeometry x="11.930000000000007" y="210" width="118.07" height="40" as="geometry" />
        </mxCell>
        <mxCell id="apU2YjhtMBtgAtZRkx56-2" value="实时内容域流水" style="shape=document;whiteSpace=wrap;html=1;boundedLbl=1;" parent="1" vertex="1">
          <mxGeometry x="11.930000000000007" y="345" width="118.07" height="40" as="geometry" />
        </mxCell>
        <mxCell id="V_wZHmumi39xLVVslMNS-21" value="" style="edgeStyle=orthogonalEdgeStyle;rounded=0;orthogonalLoop=1;jettySize=auto;html=1;" parent="1" source="apU2YjhtMBtgAtZRkx56-4" target="V_wZHmumi39xLVVslMNS-13" edge="1">
          <mxGeometry relative="1" as="geometry" />
        </mxCell>
        <mxCell id="apU2YjhtMBtgAtZRkx56-4" value="搜一搜" style="rounded=0;whiteSpace=wrap;html=1;" parent="1" vertex="1">
          <mxGeometry x="170" y="300" width="120" height="30" as="geometry" />
        </mxCell>
        <mxCell id="V_wZHmumi39xLVVslMNS-27" value="" style="edgeStyle=orthogonalEdgeStyle;rounded=0;orthogonalLoop=1;jettySize=auto;html=1;entryX=0;entryY=0.5;entryDx=0;entryDy=0;" parent="1" source="apU2YjhtMBtgAtZRkx56-5" target="V_wZHmumi39xLVVslMNS-22" edge="1">
          <mxGeometry relative="1" as="geometry" />
        </mxCell>
        <mxCell id="apU2YjhtMBtgAtZRkx56-5" value="视频号" style="rounded=0;whiteSpace=wrap;html=1;" parent="1" vertex="1">
          <mxGeometry x="170" y="350" width="120" height="30" as="geometry" />
        </mxCell>
        <mxCell id="Tbrwe3A2g-YsbmghTqT5-1" value="广告域样本" style="rounded=0;whiteSpace=wrap;html=1;" parent="1" vertex="1">
          <mxGeometry x="910" y="200" width="130" height="60" as="geometry" />
        </mxCell>
        <mxCell id="V_wZHmumi39xLVVslMNS-9" style="edgeStyle=orthogonalEdgeStyle;rounded=0;orthogonalLoop=1;jettySize=auto;html=1;exitX=1;exitY=0.5;exitDx=0;exitDy=0;" parent="1" source="V_wZHmumi39xLVVslMNS-1" target="V_wZHmumi39xLVVslMNS-2" edge="1">
          <mxGeometry relative="1" as="geometry" />
        </mxCell>
        <mxCell id="V_wZHmumi39xLVVslMNS-1" value="&lt;div&gt;点击/转化/点赞&lt;/div&gt;&lt;div&gt;负反馈/曝光&lt;/div&gt;" style="shape=parallelogram;perimeter=parallelogramPerimeter;whiteSpace=wrap;html=1;fixedSize=1;" parent="1" vertex="1">
          <mxGeometry x="325" y="210" width="115" height="40" as="geometry" />
        </mxCell>
        <mxCell id="V_wZHmumi39xLVVslMNS-18" value="" style="edgeStyle=orthogonalEdgeStyle;rounded=0;orthogonalLoop=1;jettySize=auto;html=1;" parent="1" source="V_wZHmumi39xLVVslMNS-2" target="V_wZHmumi39xLVVslMNS-17" edge="1">
          <mxGeometry relative="1" as="geometry" />
        </mxCell>
        <mxCell id="V_wZHmumi39xLVVslMNS-2" value="精选用户&lt;div&gt;精选广告&lt;/div&gt;" style="shape=parallelogram;perimeter=parallelogramPerimeter;whiteSpace=wrap;html=1;fixedSize=1;" parent="1" vertex="1">
          <mxGeometry x="472.5" y="210" width="115" height="40" as="geometry" />
        </mxCell>
        <mxCell id="V_wZHmumi39xLVVslMNS-11" style="edgeStyle=orthogonalEdgeStyle;rounded=0;orthogonalLoop=1;jettySize=auto;html=1;exitX=1;exitY=0.5;exitDx=0;exitDy=0;entryX=0;entryY=0.5;entryDx=0;entryDy=0;" parent="1" source="V_wZHmumi39xLVVslMNS-3" target="V_wZHmumi39xLVVslMNS-34" edge="1">
          <mxGeometry relative="1" as="geometry">
            <Array as="points">
              <mxPoint x="890" y="300" />
              <mxPoint x="890" y="360" />
            </Array>
          </mxGeometry>
        </mxCell>
        <mxCell id="V_wZHmumi39xLVVslMNS-38" style="edgeStyle=orthogonalEdgeStyle;rounded=0;orthogonalLoop=1;jettySize=auto;html=1;exitX=1;exitY=0.5;exitDx=0;exitDy=0;entryX=0;entryY=0.5;entryDx=0;entryDy=0;" parent="1" source="V_wZHmumi39xLVVslMNS-3" target="Tbrwe3A2g-YsbmghTqT5-1" edge="1">
          <mxGeometry relative="1" as="geometry">
            <Array as="points">
              <mxPoint x="890" y="300" />
              <mxPoint x="890" y="230" />
            </Array>
          </mxGeometry>
        </mxCell>
        <mxCell id="V_wZHmumi39xLVVslMNS-3" value="关联用户特征&lt;div&gt;关联广告特征&lt;/div&gt;" style="shape=parallelogram;perimeter=parallelogramPerimeter;whiteSpace=wrap;html=1;fixedSize=1;" parent="1" vertex="1">
          <mxGeometry x="735" y="280" width="115" height="40" as="geometry" />
        </mxCell>
        <mxCell id="V_wZHmumi39xLVVslMNS-26" value="" style="edgeStyle=orthogonalEdgeStyle;rounded=0;orthogonalLoop=1;jettySize=auto;html=1;" parent="1" source="V_wZHmumi39xLVVslMNS-6" target="V_wZHmumi39xLVVslMNS-24" edge="1">
          <mxGeometry relative="1" as="geometry" />
        </mxCell>
        <mxCell id="V_wZHmumi39xLVVslMNS-6" value="公众号" style="rounded=0;whiteSpace=wrap;html=1;" parent="1" vertex="1">
          <mxGeometry x="170" y="400" width="120" height="30" as="geometry" />
        </mxCell>
        <mxCell id="V_wZHmumi39xLVVslMNS-28" value="" style="edgeStyle=orthogonalEdgeStyle;rounded=0;orthogonalLoop=1;jettySize=auto;html=1;" parent="1" source="V_wZHmumi39xLVVslMNS-13" target="V_wZHmumi39xLVVslMNS-15" edge="1">
          <mxGeometry relative="1" as="geometry" />
        </mxCell>
        <mxCell id="V_wZHmumi39xLVVslMNS-13" value="搜索词" style="rounded=0;whiteSpace=wrap;html=1;" parent="1" vertex="1">
          <mxGeometry x="320" y="300" width="120" height="30" as="geometry" />
        </mxCell>
        <mxCell id="V_wZHmumi39xLVVslMNS-31" value="" style="edgeStyle=orthogonalEdgeStyle;rounded=0;orthogonalLoop=1;jettySize=auto;html=1;" parent="1" source="V_wZHmumi39xLVVslMNS-15" target="V_wZHmumi39xLVVslMNS-20" edge="1">
          <mxGeometry relative="1" as="geometry" />
        </mxCell>
        <mxCell id="V_wZHmumi39xLVVslMNS-15" value="文本/视频&lt;div&gt;映射&lt;/div&gt;&lt;div&gt;ad&lt;/div&gt;" style="shape=parallelogram;perimeter=parallelogramPerimeter;whiteSpace=wrap;html=1;fixedSize=1;" parent="1" vertex="1">
          <mxGeometry x="487.5" y="335" width="100" height="60" as="geometry" />
        </mxCell>
        <mxCell id="V_wZHmumi39xLVVslMNS-36" value="" style="edgeStyle=orthogonalEdgeStyle;rounded=0;orthogonalLoop=1;jettySize=auto;html=1;" parent="1" source="V_wZHmumi39xLVVslMNS-17" target="V_wZHmumi39xLVVslMNS-3" edge="1">
          <mxGeometry relative="1" as="geometry" />
        </mxCell>
        <mxCell id="V_wZHmumi39xLVVslMNS-17" value="user, ad, label=1/0" style="rounded=0;whiteSpace=wrap;html=1;" parent="1" vertex="1">
          <mxGeometry x="610" y="200" width="110" height="60" as="geometry" />
        </mxCell>
        <mxCell id="V_wZHmumi39xLVVslMNS-37" value="" style="edgeStyle=orthogonalEdgeStyle;rounded=0;orthogonalLoop=1;jettySize=auto;html=1;" parent="1" source="V_wZHmumi39xLVVslMNS-20" target="V_wZHmumi39xLVVslMNS-3" edge="1">
          <mxGeometry relative="1" as="geometry" />
        </mxCell>
        <mxCell id="V_wZHmumi39xLVVslMNS-20" value="user, ad, label=1" style="rounded=0;whiteSpace=wrap;html=1;" parent="1" vertex="1">
          <mxGeometry x="615" y="337.5" width="105" height="55" as="geometry" />
        </mxCell>
        <mxCell id="V_wZHmumi39xLVVslMNS-29" value="" style="edgeStyle=orthogonalEdgeStyle;rounded=0;orthogonalLoop=1;jettySize=auto;html=1;" parent="1" source="V_wZHmumi39xLVVslMNS-22" target="V_wZHmumi39xLVVslMNS-15" edge="1">
          <mxGeometry relative="1" as="geometry" />
        </mxCell>
        <mxCell id="V_wZHmumi39xLVVslMNS-22" value="转、评、赞、完播" style="rounded=0;whiteSpace=wrap;html=1;" parent="1" vertex="1">
          <mxGeometry x="320" y="350" width="120" height="30" as="geometry" />
        </mxCell>
        <mxCell id="V_wZHmumi39xLVVslMNS-30" value="" style="edgeStyle=orthogonalEdgeStyle;rounded=0;orthogonalLoop=1;jettySize=auto;html=1;" parent="1" source="V_wZHmumi39xLVVslMNS-24" target="V_wZHmumi39xLVVslMNS-15" edge="1">
          <mxGeometry relative="1" as="geometry" />
        </mxCell>
        <mxCell id="V_wZHmumi39xLVVslMNS-24" value="转、评、赞、藏" style="rounded=0;whiteSpace=wrap;html=1;" parent="1" vertex="1">
          <mxGeometry x="320" y="400" width="120" height="30" as="geometry" />
        </mxCell>
        <mxCell id="V_wZHmumi39xLVVslMNS-34" value="内容域样本" style="rounded=0;whiteSpace=wrap;html=1;" parent="1" vertex="1">
          <mxGeometry x="920" y="330" width="130" height="60" as="geometry" />
        </mxCell>
      </root>
    </mxGraphModel>
  </diagram>
</mxfile>
